<svg 
 xmlns="http://www.w3.org/2000/svg"
 xmlns:xlink="http://www.w3.org/1999/xlink"
 width="2030px" height="2030px">
<path fill-rule="evenodd"  stroke="rgb(40, 40, 40)" stroke-width="20px" stroke-linecap="butt" stroke-linejoin="miter" fill="none"
 d="M1009.1000,20.051 C1556.733,20.051 1999.948,463.267 1999.948,1009.1000 C1999.948,1556.733 1556.733,1999.948 1009.1000,1999.948 C463.267,1999.948 20.051,1556.733 20.051,1009.1000 C20.051,463.267 463.267,20.051 1009.1000,20.051 Z"/>
<path fill-rule="evenodd"  fill="rgb(40, 40, 40)"
 d="M275.098,1346.229 C288.817,1505.728 350.508,1508.524 350.508,1508.524 L388.213,1508.524 L388.213,1346.229 C388.213,1346.229 272.004,1310.261 275.098,1346.229 Z"/>
<path fill-rule="evenodd"  fill="rgb(40, 40, 40)"
 d="M1743.899,1345.856 C1730.187,1505.722 1668.524,1508.524 1668.524,1508.524 L1630.836,1508.524 L1630.836,1345.856 C1630.836,1345.856 1746.992,1309.805 1743.899,1345.856 Z"/>
<path fill-rule="evenodd"  fill="rgb(10, 10, 10)"
 d="M173.459,1346.229 L173.459,1319.1000 L1845.590,1319.1000 L1845.590,1346.229 L173.459,1346.229 Z"/>
<path fill-rule="evenodd"  fill="rgb(10, 10, 10)"
 d="M177.557,1319.1000 C184.347,1319.1000 189.852,1325.505 189.852,1332.295 C189.852,1339.085 184.347,1344.590 177.557,1344.590 C170.767,1344.590 165.262,1339.085 165.262,1332.295 C165.262,1325.505 170.767,1319.1000 177.557,1319.1000 Z"/>
<path fill-rule="evenodd"  fill="rgb(10, 10, 10)"
 d="M172.639,1346.229 C168.565,1346.229 165.262,1342.927 165.262,1338.852 C165.262,1334.778 168.565,1331.475 172.639,1331.475 C176.713,1331.475 180.016,1334.778 180.016,1338.852 C180.016,1342.927 176.713,1346.229 172.639,1346.229 Z"/>
<path fill-rule="evenodd"  fill="rgb(10, 10, 10)"
 d="M1841.492,1319.1000 C1834.701,1319.1000 1829.196,1325.505 1829.196,1332.295 C1829.196,1339.085 1834.701,1344.590 1841.492,1344.590 C1848.282,1344.590 1853.787,1339.085 1853.787,1332.295 C1853.787,1325.505 1848.282,1319.1000 1841.492,1319.1000 Z"/>
<path fill-rule="evenodd"  fill="rgb(10, 10, 10)"
 d="M1846.410,1331.475 C1842.335,1331.475 1839.033,1334.778 1839.033,1338.852 C1839.033,1342.927 1842.335,1346.229 1846.410,1346.229 C1850.484,1346.229 1853.787,1342.927 1853.787,1338.852 C1853.787,1334.778 1850.484,1331.475 1846.410,1331.475 Z"/>
<path fill-rule="evenodd"  fill="rgb(252, 162, 136)"
 d="M958.1000,830.1000 L1149.1000,828.1000 L1139.852,693.410 L1105.426,606.524 L952.967,508.164 L958.1000,830.1000 Z"/>
<path fill-rule="evenodd"  fill="rgb(235, 123, 101)"
 d="M1102.147,599.967 C1102.147,599.967 949.715,514.422 951.328,529.475 C962.780,636.361 1137.1000,688.1000 1137.1000,688.1000 L1102.147,599.967 Z"/>
<path fill-rule="evenodd"  fill="rgb(40, 40, 40)"
 d="M1123.459,263.901 C1108.416,264.836 1006.966,264.586 997.229,265.541 C956.939,269.493 954.209,287.067 949.688,288.491 C945.109,289.935 944.067,306.809 938.213,306.524 C934.142,306.326 932.690,302.275 928.377,301.606 C910.376,298.815 891.754,332.128 890.672,345.869 C883.137,441.585 920.180,483.573 920.180,483.573 L980.836,465.541 L989.033,345.869 L1161.164,370.459 C1161.164,370.459 1215.980,373.272 1226.738,295.049 C1228.489,282.316 1216.859,223.748 1185.754,217.1000 C1179.724,216.885 1182.475,219.639 1182.475,219.639 C1182.475,219.639 1187.857,246.294 1179.197,245.869 C1172.911,245.560 1172.639,236.032 1172.639,236.032 C1172.639,236.032 1149.656,262.274 1123.459,263.901 Z"/>
<path fill-rule="evenodd"  fill="rgb(252, 162, 136)"
 d="M1162.803,573.738 C1162.803,573.738 1150.437,631.771 1113.623,631.114 C975.707,628.653 916.901,477.016 916.901,477.016 L1162.803,573.738 Z"/>
<path fill-rule="evenodd"  fill="rgb(252, 162, 136)"
 d="M961.164,498.328 C961.164,498.328 1003.876,512.664 995.590,493.410 C943.723,372.885 916.901,477.016 916.901,477.016 L961.164,498.328 Z"/>
<path fill-rule="evenodd"  fill="rgb(252, 162, 136)"
 d="M1167.721,590.131 C1167.721,590.131 1211.570,381.573 1157.885,365.541 C1090.318,345.363 987.393,340.950 987.393,340.950 L972.639,511.442 "/>
<path fill-rule="evenodd"  fill="rgb(252, 162, 136)"
 d="M1167.721,590.131 C1167.721,590.131 1211.570,381.573 1157.885,365.541 C1090.318,345.363 987.393,340.950 987.393,340.950 L972.639,511.442 "/>
<path fill-rule="evenodd"  fill="rgb(252, 162, 136)"
 d="M1087.393,580.295 C1087.393,580.295 1074.627,624.599 1095.590,629.475 C1170.600,646.923 1169.361,575.377 1169.361,575.377 "/>
<path fill-rule="evenodd"  fill="rgb(40, 40, 40)"
 d="M984.115,332.754 L1072.639,311.442 L1202.147,350.787 C1202.147,350.787 1183.867,372.342 1164.442,370.459 C1066.577,360.971 984.115,345.869 984.115,345.869 L984.115,332.754 Z"/>
<path fill-rule="evenodd"  fill="rgb(40, 40, 40)"
 d="M1103.000,834.000 C1084.008,833.886 1077.1000,848.000 1077.1000,848.000 L1002.000,961.000 C1002.000,961.000 937.059,961.003 933.1000,961.000 C915.032,960.985 917.000,988.1000 917.000,988.1000 L981.000,1251.1000 L821.459,1247.475 L793.590,1095.016 L691.1000,806.1000 C700.551,771.307 882.1000,741.1000 882.1000,741.1000 L949.328,706.491 L1052.606,822.885 L1141.131,708.131 C1141.131,708.131 1376.639,781.354 1393.1000,796.1000 C1412.765,813.912 1417.000,832.1000 1417.000,832.1000 C1417.000,832.1000 1105.136,834.013 1103.000,834.000 ZM1349.1000,959.000 L1374.000,877.1000 L1124.000,877.000 C1124.000,877.000 1113.929,875.943 1108.000,884.1000 C1100.202,896.912 1060.000,959.000 1060.000,959.000 L1349.1000,959.000 Z"/>
<path fill-rule="evenodd"  fill="rgb(10, 10, 10)"
 d="M951.328,688.491 L1052.1000,823.1000 L954.606,778.656 L885.754,808.164 L882.475,724.557 L951.328,688.491 Z"/>
<path fill-rule="evenodd"  fill="rgb(10, 10, 10)"
 d="M1143.131,690.131 L1051.1000,823.1000 L1154.606,781.934 L1218.541,804.885 L1215.262,714.721 L1143.131,690.131 Z"/>
<path fill-rule="evenodd"  fill="rgb(252, 162, 136)"
 d="M1036.000,1320.000 C1020.962,1319.221 1011.536,1308.633 1007.000,1304.1000 C994.896,1295.304 988.000,1276.1000 988.000,1276.1000 L975.000,1229.000 L757.885,1222.918 L775.918,1158.983 L598.869,1119.639 L584.115,1240.950 L620.180,1319.639 C620.180,1319.639 1040.105,1320.213 1036.000,1320.000 Z"/>
<path fill-rule="evenodd"  fill="rgb(252, 162, 136)"
 d="M602.147,1236.032 C606.302,1236.524 584.686,1223.615 584.115,1242.590 C581.889,1316.565 620.180,1317.1000 620.180,1317.1000 C620.180,1317.1000 597.993,1235.541 602.147,1236.032 Z"/>
<path fill-rule="evenodd"  fill="rgb(10, 10, 10)"
 d="M598.869,1117.1000 C653.475,830.632 700.508,795.049 700.508,795.049 L793.1000,1094.1000 L775.918,1158.983 C775.918,1158.983 590.787,1160.529 598.869,1117.1000 ZM1372.000,878.1000 L1348.1000,959.000 L1461.000,959.000 L1437.000,878.1000 L1372.000,878.1000 ZM1387.000,833.000 C1387.000,833.000 1392.261,815.346 1396.1000,799.1000 C1398.248,795.957 1418.000,833.000 1418.000,833.000 "/>
<path fill-rule="evenodd"  fill="rgb(10, 10, 10)"
 d="M1031.1000,1291.000 L1509.000,1289.000 L1579.000,992.1000 L957.1000,991.1000 L1031.1000,1291.000 Z"/>
<path fill-rule="evenodd"  fill="rgb(40, 40, 40)"
 d="M1502.1000,963.1000 L1449.1000,883.1000 C1449.1000,883.1000 1445.265,872.035 1425.1000,871.1000 L1126.1000,871.1000 C1107.734,872.035 1102.1000,883.1000 1102.1000,883.1000 L1049.1000,963.1000 L1502.1000,963.1000 ZM1250.1000,995.1000 L1127.1000,995.1000 L1146.1000,1125.1000 L1250.1000,1125.1000 L1250.1000,995.1000 ZM1088.1000,995.1000 L962.1000,995.1000 L993.1000,1125.1000 L1106.1000,1125.1000 L1088.1000,995.1000 ZM1291.1000,995.1000 L1414.1000,995.1000 L1395.1000,1125.1000 L1291.1000,1125.1000 L1291.1000,995.1000 ZM1448.1000,995.1000 L1574.1000,995.1000 L1543.1000,1125.1000 L1430.1000,1125.1000 L1448.1000,995.1000 ZM1250.1000,1157.1000 L1151.1000,1157.1000 L1169.1000,1286.1000 L1250.1000,1286.1000 L1250.1000,1157.1000 ZM1129.1000,1286.1000 L1111.1000,1157.1000 L1002.1000,1157.1000 L1028.1000,1263.1000 C1028.1000,1263.1000 1036.097,1286.806 1056.1000,1286.1000 C1077.903,1287.194 1129.1000,1286.1000 1129.1000,1286.1000 ZM1410.1000,1286.906 L1428.1000,1157.1000 L1537.1000,1157.1000 L1511.1000,1263.923 C1511.1000,1263.923 1504.903,1286.712 1483.1000,1286.906 C1463.097,1287.100 1410.1000,1286.906 1410.1000,1286.906 ZM1291.1000,1157.1000 L1390.1000,1157.1000 L1372.1000,1286.1000 L1291.1000,1286.1000 L1291.1000,1157.1000 ZM1055.1000,1319.1000 C1004.720,1318.862 991.837,1275.1000 991.837,1275.1000 C991.837,1275.1000 929.773,1027.027 922.660,995.1000 C915.769,965.934 932.686,964.1000 932.686,964.1000 L1003.1000,963.1000 L1080.1000,849.1000 C1080.1000,849.1000 1085.734,838.035 1104.1000,837.1000 C1104.1000,837.1000 1431.009,837.969 1447.1000,837.1000 C1467.265,838.035 1471.1000,849.1000 1471.1000,849.1000 L1548.1000,963.1000 L1619.314,965.023 C1619.314,965.023 1636.231,965.957 1629.339,996.021 C1622.227,1027.046 1560.163,1276.003 1560.163,1276.003 C1560.163,1276.003 1547.279,1318.862 1495.1000,1319.1000 L1055.1000,1319.1000 Z"/>
</svg>