<?xml version="1.0" encoding="utf-8"?>
<!-- Generator: Adobe Illustrator 27.4.1, SVG Export Plug-In . SVG Version: 6.00 Build 0)  -->
<svg version="1.1" id="Слой_1" xmlns="http://www.w3.org/2000/svg" xmlns:xlink="http://www.w3.org/1999/xlink" x="0px" y="0px"
	 viewBox="0 0 24 24" style="enable-background:new 0 0 24 24;" xml:space="preserve">
<path d="M12,24c-1.6,0-3.2-0.3-4.7-0.9c-1.5-0.6-2.7-1.5-3.8-2.6s-2-2.4-2.6-3.8C0.3,15.2,0,13.6,0,12c0-1.7,0.3-3.2,0.9-4.7
	s1.5-2.7,2.6-3.8s2.4-2,3.8-2.6S10.4,0,12,0c1.7,0,3.2,0.3,4.7,0.9c1.4,0.6,2.7,1.5,3.8,2.6c1.1,1.1,1.9,2.4,2.6,3.8
	c0.6,1.4,0.9,3,0.9,4.7c0,1.6-0.3,3.2-0.9,4.6c-0.6,1.5-1.5,2.7-2.6,3.8c-1.1,1.1-2.4,1.9-3.8,2.6C15.2,23.7,13.7,24,12,24z
	 M12,21.5c0.5-0.7,1-1.5,1.4-2.2c0.4-0.8,0.7-1.6,0.9-2.5H9.7c0.2,0.9,0.6,1.7,0.9,2.5C11,20.1,11.5,20.8,12,21.5z M8.9,21.1
	c-0.4-0.7-0.7-1.3-0.9-2.1c-0.3-0.7-0.5-1.4-0.7-2.2H3.7c0.6,1,1.3,1.9,2.2,2.6S7.8,20.7,8.9,21.1z M15.1,21.1
	c1.1-0.4,2.1-0.9,3-1.6c0.9-0.7,1.6-1.6,2.2-2.6h-3.5c-0.2,0.8-0.4,1.5-0.7,2.2C15.8,19.7,15.5,20.4,15.1,21.1z M2.7,14.4h4.1
	c-0.1-0.4-0.1-0.8-0.1-1.2c0-0.4,0-0.8,0-1.2s0-0.8,0-1.2c0-0.4,0.1-0.8,0.1-1.2H2.7c-0.1,0.4-0.2,0.8-0.2,1.2
	c0,0.4-0.1,0.8-0.1,1.2s0,0.8,0.1,1.2C2.5,13.6,2.6,14,2.7,14.4z M9.2,14.4h5.6c0.1-0.4,0.1-0.8,0.1-1.2c0-0.4,0-0.8,0-1.2
	s0-0.8,0-1.2c0-0.4-0.1-0.8-0.1-1.2H9.2C9.1,10,9.1,10.4,9,10.8c0,0.4,0,0.8,0,1.2s0,0.8,0,1.2C9.1,13.6,9.1,14,9.2,14.4z
	 M17.2,14.4h4.1c0.1-0.4,0.2-0.8,0.2-1.2c0.1-0.4,0.1-0.8,0.1-1.2s0-0.8-0.1-1.2c-0.1-0.4-0.1-0.8-0.2-1.2h-4.1
	c0.1,0.4,0.1,0.8,0.1,1.2c0,0.4,0,0.8,0,1.2s0,0.8,0,1.2C17.3,13.6,17.3,14,17.2,14.4z M16.7,7.2h3.5c-0.6-1-1.3-1.9-2.2-2.6
	c-0.9-0.7-1.9-1.3-3-1.7c0.4,0.7,0.7,1.3,0.9,2.1C16.3,5.7,16.6,6.4,16.7,7.2z M9.7,7.2h4.6c-0.2-0.9-0.5-1.7-0.9-2.5
	C13,3.9,12.5,3.2,12,2.5c-0.5,0.7-1,1.5-1.4,2.2C10.3,5.5,10,6.3,9.7,7.2z M3.7,7.2h3.5C7.4,6.4,7.7,5.7,7.9,5s0.6-1.4,0.9-2.1
	c-1.1,0.4-2.1,0.9-3,1.7S4.3,6.2,3.7,7.2z"/>
</svg>
