<?xml version="1.0" encoding="utf-8"?>
<!-- Generator: Adobe Illustrator 27.4.1, SVG Export Plug-In . SVG Version: 6.00 Build 0)  -->
<svg version="1.1" id="Слой_1" xmlns="http://www.w3.org/2000/svg" xmlns:xlink="http://www.w3.org/1999/xlink" x="0px" y="0px"
	 viewBox="0 0 800 800" style="enable-background:new 0 0 800 800;" xml:space="preserve">
<style type="text/css">
	.st0{fill:none;}
</style>
<rect class="st0" width="800" height="800"/>
<path d="M400.2,321.5c38.4,0,69.6,34.8,69.6,77.7c0,42.9-31.2,77.7-69.6,77.7c-38.2,0-69.2-34.3-69.6-76.9
	C330.4,356.9,361.5,321.7,400.2,321.5C400.2,321.5,400.2,321.5,400.2,321.5 M227.8,732.4c23.5,15.8,74.5-8.3,134-70.6
	c-19.9-25.2-38.7-51.6-56.2-78.9c-30-3.8-59.9-9.3-89.3-16.6C197.3,655.1,204.4,716.2,227.8,732.4 M254.3,493.9l-10.8-21.2
	c-4.2,11.7-7.8,23.6-10.8,35.7c10.1,2.5,21.2,4.6,32.8,6.6L254.3,493.9 M497.7,462.3l30.2-62.3l-30.2-62.3
	c-11.2-22-23.1-41.5-33.9-61.1c-20.1-1.2-41.3-1.2-63.7-1.2c-22.3,0-43.6,0-63.7,0c-10.8,19.5-22.7,39.1-33.9,61.1L272.5,400
	l30.2,62.3c11.2,22,23.1,41.5,33.9,61.1c20.1,0,41.3,0,63.7,0c22.3,0,43.6,0,63.7,0C474.6,503.9,486.6,484.4,497.7,462.3
	 M400.2,183.1c-7.1,9.1-14.5,18.7-22,29.9h43.9C414.7,201.8,407.3,192.3,400.2,183.1 M400.2,616.9c7.1-9.1,14.5-18.7,22-29.9h-43.9
	C385.7,598.2,393.1,607.8,400.2,616.9 M572.2,67.6c-23.1-15.8-74.5,8.3-133.6,70.6c19.9,25.2,38.7,51.6,56.2,78.9
	c30,3.2,59.8,8.2,89.3,15c19-88.9,11.9-150-11.9-166.2 M546.1,304.5l10.8,21.2c4.2-11.7,7.8-23.6,10.8-35.7
	c-10.1-2.5-21.2-4.6-32.8-6.6L546.1,304.5 M600.1,13.6c54.7,34.9,60.7,126.7,37.2,233.9C731.9,278.7,800,330.6,800,400.4
	s-68.1,121.7-162.7,152.9c23.1,107.2,17.1,199-37.2,233.9c-54.4,34.9-128.4-5-199.9-81c-71.5,76-145.6,115.9-200.3,81
	s-60.3-124.6-37.2-233.9C68.1,522.2,0,470.2,0,400.4s68.1-122.2,162.7-153.3c-23.1-107.2-17.1-199,37.2-233.9s128.8,5,200.3,81
	c71.5-76,145.6-115.9,199.9-81 M589.3,400c12.9,30.6,24.4,61.9,34.2,93.9c78.2-26.2,122.1-63.6,122.1-93.9
	c0-30.3-45-67.7-122.1-93.9C613.7,338.1,602.2,369.4,589.3,400 M211.1,400c-12.9-30.6-24.4-61.9-34.2-93.9
	C98.7,332.3,54.7,369.7,54.7,400c0,30.3,45,67.7,122.1,93.9C186.7,461.9,198.1,430.6,211.1,400 M546.1,493.9l-11.2,21.2
	c11.5,0,22.7-4.2,32.8-6.6c-3-12.1-6.6-24.1-10.8-35.7L546.1,493.9 M437.4,661.8c59.2,62.3,111.7,86.4,133.6,70.6
	c22-15.8,30.9-75.6,11.9-166.2c-29.5,6.8-59.3,11.8-89.3,15C476.1,609.1,457.4,636,437.4,661.8 M254.3,306.1l11.2-21.2
	c-11.5,0-22.7,4.2-32.8,6.6c3,12.1,6.6,24.1,10.8,35.7L254.3,306.1 M363,138.3c-60.3-62.3-111.7-86.4-135.1-70.6
	s-30.5,75.6-11.5,166.2c29.5-6.8,59.3-11.8,89.3-15C323.5,190.9,342.6,164,363,138.3z"/>
</svg>
